<svg xmlns="http://www.w3.org/2000/svg" viewBox="0 0 596.44 655.21"><defs><style>.cls-1{fill:#fff;}</style></defs><title>codeSkills</title><g id="Layer_2" data-name="Layer 2"><g id="Layer_1-2" data-name="Layer 1"><path id="Tracé_655" data-name="Tracé 655" class="cls-1" d="M580.18,438.28a426.3,426.3,0,0,1-33.25,76.17,336.2,336.2,0,0,1-21.36,33.68c-31.47,40.14-75.58,67.68-123.5,84-52.2,17.77-116.13,30.26-170.75,18.47-48.46-10.47-80.18-40.9-113.13-75.45-29.64-31.09-79.09-42-100.4-81.24C8.7,477.2,6.24,457.2,3.69,438.6a398.72,398.72,0,0,1-2.1-89.7,425.8,425.8,0,0,1,6.73-46.21c10.94-58.53,36.16-112,80.88-140.34C154.91,117.73,212.31,74.52,276.11,24c35.23-25.19,92.64-32.49,132.1-12.71,27.41,13.74,51.86,41.17,72.42,63.57a494.7,494.7,0,0,1,58.25,77.15c34.67,57,57,122.16,57.54,189.27.11,15.07-.19,30.94-3,45.8A410,410,0,0,1,580.18,438.28Z"/></g></g></svg>