<svg xmlns="http://www.w3.org/2000/svg" viewBox="0 0 490 466.58"><defs><style>.cls-1{fill:#fff;}</style></defs><title>designSkills</title><g id="Layer_2" data-name="Layer 2"><g id="Layer_1-2" data-name="Layer 1"><path id="Tracé_660" data-name="Tracé 660" class="cls-1" d="M233.59,466.54a293.23,293.23,0,0,1-61.16-5.38,232.09,232.09,0,0,1-28.66-7.36C84.11,434.35,43.9,373,19.09,318.83,8.13,294.92.65,269,0,242.52s11.33-51.2,21.12-75.47C27.48,151.3,34.06,135.54,37.93,119c4.09-17.53,6.06-36,15.7-51.68,19.71-32,68.54-48.67,103-57.73a293.31,293.31,0,0,1,33.86-6.83C233.93-4.1,277.3,1.09,307.88,27.34a1141.73,1141.73,0,0,0,114.34,85.72c33.87,22.32,64.53,51.93,67.55,95,2.46,35.18-14.79,66.32-30.23,96.56a361.28,361.28,0,0,1-45.64,69.17c-35.29,41.79-85.8,81-141.41,89.52A283.08,283.08,0,0,1,233.59,466.54Z"/></g></g></svg>