<svg xmlns="http://www.w3.org/2000/svg" viewBox="0 0 1377.2 784.36"><defs><style>.cls-1{fill:#fff;}</style></defs><title>formeAbout</title><g id="Layer_2" data-name="Layer 2"><g id="Layer_1-2" data-name="Layer 1"><path class="cls-1" d="M32,339.3c1-1.06,2.08-2.1,3.17-3.13,28.27-26.61,64.37-46.32,94.8-70.71C168.26,234.75,205,202.14,241.2,169c52.49-48.14,106.93-94.19,172.14-124.23C587-35.26,767,6.64,942.25,57.2c118.86,34.29,243.48,80.5,338.12,162.75,110.91,96.39,129.34,253.69,40.77,373.05-19.66,26.5-50,39-79.05,52.13-34.18,15.48-66.5,34.68-100.47,50.63-67.7,31.79-138.93,53.84-212.52,67.08-73.37,13.2-151.83,23-226.5,21.32-78.8-1.81-144.49-34.48-217.78-58.66a1232.09,1232.09,0,0,0-131.66-35.31c-46-9.7-92.5-16.24-138.47-25.82C174.55,656,124.92,647.85,89.5,626.6,40.2,597,9.46,533.5,2.76,478.24-2.93,431.36-2.67,375.09,32,339.3Z"/></g></g></svg>