<svg xmlns="http://www.w3.org/2000/svg" viewBox="0 0 1458.497 956.692">
  <defs>
    <style>
      .cls-1 {
        fill: #4f64ae;
      }
    </style>
  </defs>
  <path id="Tracé_653" data-name="Tracé 653" class="cls-1" d="M1351.677,389.117a236.223,236.223,0,0,1-18.583,91.071A243.08,243.08,0,0,1,1310.3,522.7c-89.688,117.21-339.582,176.839-537.639,206.607-155.022,19.814-310.143-44.652-463.8-60.931-23.18-2.6-46.653-5.4-70.322-8.558-34.428-4.93-77.56-14.884-97.023-33.024a402.876,402.876,0,0,1-49.1-41.21c-29.342-28.837-52.424-60-68.171-93.024a255.744,255.744,0,0,1-18-50.7c-17.605-64.931-.391-129.49,77.169-174.141C195.415,198.231,290.189,133.765,393.57,59.253,445.211,25.764,521.207,9.02,598.669,2.694,624.49.648,650.506-.283,675.936,0c277.573,44.373,604.93,158.513,668.308,331.073A231.224,231.224,0,0,1,1351.677,389.117Z" transform="matrix(-0.985, -0.174, 0.174, -0.985, 1331.151, 956.631)"/>
</svg>
