<svg xmlns="http://www.w3.org/2000/svg" viewBox="0 0 585.54 594.67"><defs><style>.cls-1{fill:#fff;}</style></defs><title>softSkills</title><g id="Layer_2" data-name="Layer 2"><g id="Layer_1-2" data-name="Layer 1"><path id="Tracé_659" data-name="Tracé 659" class="cls-1" d="M482.61,73.2a395.87,395.87,0,0,1,54.16,57.46A312.13,312.13,0,0,1,558.17,162c26.16,48.2,31.68,104.05,24.48,157.78-6.43,48-19.16,107-48.57,146.44-23.4,31.35-61.22,47.08-95.58,63.13-20,9.36-40.25,18.28-58.31,31.14-18.69,13.31-37,29.62-60.46,33.35-12.87,2-26,0-38.78-2.72-85.11-18.06-178.62-64.91-216.68-147.37-20.56-44.55-24.76-94.08-34-141.69C20.7,252.68-3.84,206.1.51,154.59c5.59-66.21,57-99.41,113-121.43C175,9,242.05-4.08,308.24,1.14,355.5,4.86,401.89,18.4,442.72,42.7A381.74,381.74,0,0,1,482.61,73.2Z"/></g></g></svg>