<svg xmlns="http://www.w3.org/2000/svg" xmlns:xlink="http://www.w3.org/1999/xlink" viewBox="0 0 283.65 74.89"><defs><style>.cls-1,.cls-3{fill:none;}.cls-2{clip-path:url(#clip-path);}.cls-3{stroke:#f16a77;stroke-miterlimit:10;stroke-width:2px;}</style><clipPath id="clip-path" transform="translate(-5.23 -1.26)"><rect class="cls-1" width="297.69" height="77.96"/></clipPath></defs><title>Asset 5</title><g id="Layer_2" data-name="Layer 2"><g id="Layer_1-2" data-name="Layer 1"><g class="cls-2"><path class="cls-3" d="M6.68,33.49a54.76,54.76,0,0,1,2.7-5.57c.53-.92,1.11-1.84,1.75-2.74.32-.45.67-.89,1-1.34l1.17-1.3c.37-.44.85-.85,1.28-1.27S15.49,20.42,16,20s1-.81,1.48-1.21l1.6-1.17.41-.29.43-.28.86-.56.88-.55c.29-.18.61-.35.92-.53.62-.35,1.22-.71,1.87-1l1.95-1a88.83,88.83,0,0,1,8.5-3.56c.75-.27,1.52-.52,2.27-.78l1.14-.39,1.17-.36c.79-.23,1.54-.49,2.34-.71L44.2,6.9a146.61,146.61,0,0,1,20.17-4,79.6,79.6,0,0,1,10.75-.61,81.69,81.69,0,0,1,10.7.91C89.3,3.69,92.7,4.33,96.08,5s6.78,1.22,10.23,1.72,6.94.89,10.46,1.23,7.06.6,10.61.77c7.13.34,14.31.36,21.46.07v0a214.59,214.59,0,0,1-21.53.3A212.92,212.92,0,0,1,106,7.2c-3.47-.5-6.92-1.07-10.3-1.72S89,4.19,85.57,3.67a82.28,82.28,0,0,0-10.48-1,85.27,85.27,0,0,0-10.61.47c-3.5.38-7,.91-10.3,1.58s-6.64,1.44-9.82,2.32-6.22,1.9-9.14,3S29.57,12.4,27,13.7a49.09,49.09,0,0,0-12.95,9C10.66,26.1,8.76,29.82,6.77,33.5Z" transform="translate(-5.23 -1.26)"/><path class="cls-3" d="M287.74,58.56A194.43,194.43,0,0,0,260,59.91a155.48,155.48,0,0,0-26.48,5.18q-3.17,1-6.23,2.11c-2,.76-4,1.58-6,2.4s-4,1.64-6.11,2.38a65.42,65.42,0,0,1-6.37,2,38.88,38.88,0,0,1-13.89,1,30.93,30.93,0,0,1-7.09-1.71,24.46,24.46,0,0,1-6.39-3.54l.05-.06a25.06,25.06,0,0,0,6.45,3.25,29.84,29.84,0,0,0,7,1.49,38.19,38.19,0,0,0,6.93,0,42,42,0,0,0,6.6-1.19,65.45,65.45,0,0,0,6.28-2c2.05-.73,4.07-1.53,6.1-2.33s4.05-1.6,6.12-2.34,4.17-1.43,6.31-2a156.74,156.74,0,0,1,26.68-5,196.6,196.6,0,0,1,27.86-1Z" transform="translate(-5.23 -1.26)"/></g></g></g></svg>